<svg width="1372" height="1426" viewBox="0 0 1372 1426" fill="none" xmlns="http://www.w3.org/2000/svg">
<path d="M1.5 986.5L0.5 114.5L52 151L64.5 160.5L76 168L93 178L104.5 185L117.5 194.5L123.5 200L130 206L134.5 212.5L137 217L140 223L142 230.5L144 246V265.5L142 291V932.5L143.5 936.5L144 940.5L145 942.5L146.5 945.5L147.5 947.5L148.5 949.5L150 952.5L218.5 1034.5H221V1.5L795.5 412.5L1352.5 13.5L1361.5 7.5L1370 1L1371 144L1370.5 152.5L1369.5 158V159.5L1368.5 162.5L1367.5 165.5L1366.5 168L1365.5 169.5L1363.5 173.5L1360.5 178.5L1353.5 187.5L1343.5 196.5L795.5 588.5L513 385.5L404.5 308L368.5 282L362.5 279V1424L326.5 1381.5L200.5 1233.5L78.5 1088.5L11.5 1008.5L6 999.5L3.5 994L1.5 986.5Z" fill="black" stroke="black"/>
</svg>
